# xmcd CD database file
#
# Track frame offsets:
#	150
#	13024
#	33159
#	44629
#	81507
#	86470
#	107584
#	124584
#	133460
#	148452
#
# Disc length: 2355 seconds
#
# Revision: 0
# Processed by: cddbd v1.5.2PL0 Copyright (c) Steve Scherf et al.
# Submitted via: CDex 1.70beta2
#
DISCID=8e09310a
DTITLE=Stan Getz and Astrud Gilberto - Getz Au Go Go
DYEAR=1964
DGENRE=Jazz
TTITLE0=Corcovado
TTITLE1=It Might As Well Be Spring
TTITLE2=Eu E Voce
TTITLE3=Summertime
TTITLE4=Nix-Pix-Flix
TTITLE5=Only Trust Your Heart
TTITLE6=The Singing Song
TTITLE7=The Telephone Song
TTITLE8=One Note Samba
TTITLE9=Here's That Rainy Day
EXTD=YEAR: 1964
EXTT0=
EXTT1=
EXTT2=
EXTT3=
EXTT4=
EXTT5=
EXTT6=
EXTT7=
EXTT8=
EXTT9=
PLAYORDER=
